<?xml version="1.0" encoding="UTF-8" standalone="no"?>
<!-- Created with Inkscape (http://www.inkscape.org/) -->

<svg
   xmlns:dc="http://purl.org/dc/elements/1.1/"
   xmlns:cc="http://creativecommons.org/ns#"
   xmlns:rdf="http://www.w3.org/1999/02/22-rdf-syntax-ns#"
   xmlns:svg="http://www.w3.org/2000/svg"
   xmlns="http://www.w3.org/2000/svg"
   xmlns:sodipodi="http://sodipodi.sourceforge.net/DTD/sodipodi-0.dtd"
   xmlns:inkscape="http://www.inkscape.org/namespaces/inkscape"
   width="300.0004"
   height="300.0004"
   id="svg3465"
   version="1.1"
   inkscape:version="0.48.4 r9939"
   sodipodi:docname="New document 2">
  <defs
     id="defs3467" />
  <sodipodi:namedview
     id="base"
     pagecolor="#ffffff"
     bordercolor="#666666"
     borderopacity="1.0"
     inkscape:pageopacity="0.0"
     inkscape:pageshadow="2"
     inkscape:zoom="0.35"
     inkscape:cx="53.571592"
     inkscape:cy="190.00018"
     inkscape:document-units="px"
     inkscape:current-layer="layer1"
     showgrid="false"
     fit-margin-top="0"
     fit-margin-left="0"
     fit-margin-right="0"
     fit-margin-bottom="0"
     inkscape:window-width="463"
     inkscape:window-height="401"
     inkscape:window-x="418"
     inkscape:window-y="62"
     inkscape:window-maximized="0" />
  <metadata
     id="metadata3470">
    <rdf:RDF>
      <cc:Work
         rdf:about="">
        <dc:format>image/svg+xml</dc:format>
        <dc:type
           rdf:resource="http://purl.org/dc/dcmitype/StillImage" />
        <dc:title></dc:title>
      </cc:Work>
    </rdf:RDF>
  </metadata>
  <g
     inkscape:label="Layer 1"
     inkscape:groupmode="layer"
     id="layer1"
     transform="translate(-321.42841,-422.36196)">
    <g
       id="g8973"
       transform="matrix(6.0000079,0,0,6.0000079,-1279.5429,-2239.2218)">
      <path
         id="path4936"
         d="m 291.8282,443.59671 c -13.80712,0 -25,11.19288 -25,25 0,13.80712 11.19288,25 25,25 13.80712,0 25,-11.19288 25,-25 0,-13.80712 -11.19288,-25 -25,-25 z m 0,5 c 11.0457,0 20,8.9543 20,20 0,11.0457 -8.9543,20 -20,20 -11.0457,0 -20,-8.9543 -20,-20 0,-11.0457 8.9543,-20 20,-20 z"
         style="fill:#5c7dfe;fill-opacity:1;stroke:none"
         inkscape:connector-curvature="0" />
      <g
         transform="matrix(0.57996194,0,0,0.77818661,1014.3554,469.25962)"
         style="font-size:40px;font-style:normal;font-variant:normal;font-weight:normal;font-stretch:normal;line-height:125%;letter-spacing:0px;word-spacing:0px;fill:#cccccc;fill-opacity:1;stroke:none;font-family:Lucida Console;-inkscape-font-specification:Lucida Console"
         id="flowRoot4940">
        <path
           inkscape:connector-curvature="0"
           d="m -1255.457,13.962591 0,-2.890625 7.7148,0 0,-22.480469 -7.7148,1.7382817 0,-2.3828127 11.5625,-3.613281 0,26.738281 7.7148,0 0,2.890625 z"
           style="text-align:center;text-anchor:middle;fill:#cccccc;font-family:Lucida Console;-inkscape-font-specification:Lucida Console"
           id="path13331" />
      </g>
    </g>
  </g>
</svg>
