<?xml version="1.0" encoding="UTF-8" standalone="no"?>
<!-- Created with Inkscape (http://www.inkscape.org/) -->

<svg
   xmlns:dc="http://purl.org/dc/elements/1.1/"
   xmlns:cc="http://creativecommons.org/ns#"
   xmlns:rdf="http://www.w3.org/1999/02/22-rdf-syntax-ns#"
   xmlns:svg="http://www.w3.org/2000/svg"
   xmlns="http://www.w3.org/2000/svg"
   xmlns:xlink="http://www.w3.org/1999/xlink"
   xmlns:sodipodi="http://sodipodi.sourceforge.net/DTD/sodipodi-0.dtd"
   xmlns:inkscape="http://www.inkscape.org/namespaces/inkscape"
   width="300.0004"
   height="300.0004"
   id="svg3465"
   version="1.1"
   inkscape:version="0.48.4 r9939"
   sodipodi:docname="3.svg">
  <defs
     id="defs3467">
    <linearGradient
       inkscape:collect="always"
       xlink:href="#linearGradient6591"
       id="linearGradient9923"
       gradientUnits="userSpaceOnUse"
       x1="466.82819"
       y1="493.59671"
       x2="416.82819"
       y2="443.59671" />
    <linearGradient
       id="linearGradient6591">
      <stop
         style="stop-color:#5c7dfe;stop-opacity:1"
         offset="0"
         id="stop6593" />
      <stop
         id="stop6641"
         offset="0.33000001"
         style="stop-color:#5c7dfe;stop-opacity:1;" />
      <stop
         id="stop6639"
         offset="0.67000002"
         style="stop-color:#5cfe64;stop-opacity:1;" />
      <stop
         style="stop-color:#5cfe65;stop-opacity:1;"
         offset="1"
         id="stop6595" />
    </linearGradient>
  </defs>
  <sodipodi:namedview
     id="base"
     pagecolor="#ffffff"
     bordercolor="#666666"
     borderopacity="1.0"
     inkscape:pageopacity="0.0"
     inkscape:pageshadow="2"
     inkscape:zoom="0.35"
     inkscape:cx="53.571592"
     inkscape:cy="190.00018"
     inkscape:document-units="px"
     inkscape:current-layer="layer1"
     showgrid="false"
     fit-margin-top="0"
     fit-margin-left="0"
     fit-margin-right="0"
     fit-margin-bottom="0"
     inkscape:window-width="613"
     inkscape:window-height="401"
     inkscape:window-x="418"
     inkscape:window-y="62"
     inkscape:window-maximized="0" />
  <metadata
     id="metadata3470">
    <rdf:RDF>
      <cc:Work
         rdf:about="">
        <dc:format>image/svg+xml</dc:format>
        <dc:type
           rdf:resource="http://purl.org/dc/dcmitype/StillImage" />
        <dc:title></dc:title>
      </cc:Work>
    </rdf:RDF>
  </metadata>
  <g
     inkscape:label="Layer 1"
     inkscape:groupmode="layer"
     id="layer1"
     transform="translate(-321.42841,-422.36196)">
    <g
       id="g8952"
       transform="matrix(6.0000079,0,0,6.0000079,-2179.5441,-2239.2218)">
      <path
         id="path5573"
         d="m 441.8282,493.59671 c 13.80712,0 25,-11.19288 25,-25 0,-13.80712 -11.19288,-25 -25,-25 l -25,0 0,25 c 0,13.80712 11.19288,25 25,25 z m 0,-5 c -11.0457,0 -20,-8.9543 -20,-20 0,-10.70052 8.40135,-19.43309 18.96875,-19.96875 0.34088,-0.0173 0.68607,-0.0312 1.03125,-0.0312 11.0457,0 20,8.9543 20,20 0,11.0457 -8.9543,20 -20,20 z"
         style="fill:url(#linearGradient9923);fill-opacity:1;stroke:none"
         inkscape:connector-curvature="0" />
      <g
         transform="matrix(0.57996194,0,0,0.77818661,1165.1257,468.97844)"
         style="font-size:40px;font-style:normal;font-variant:normal;font-weight:normal;font-stretch:normal;line-height:125%;letter-spacing:0px;word-spacing:0px;fill:#cccccc;fill-opacity:1;stroke:none;font-family:Lucida Console;-inkscape-font-specification:Lucida Console"
         id="flowRoot5575">
        <path
           inkscape:connector-curvature="0"
           d="m -1244.8516,13.962591 0,-7.7148435 -12.0507,0 0,-3.2421875 12.0507,-17.949219 3.6133,0 0,18.3007815 3.8477,0 0,2.890625 -3.8477,0 0,7.7148435 z m -8.8086,-10.6054685 8.8086,0 0,-13.125 z"
           style="text-align:center;text-anchor:middle;fill:#cccccc;font-family:Lucida Console;-inkscape-font-specification:Lucida Console"
           id="path13322" />
      </g>
    </g>
  </g>
</svg>
