<?xml version="1.0" encoding="UTF-8" standalone="no"?>
<!-- Created with Inkscape (http://www.inkscape.org/) -->

<svg
   xmlns:dc="http://purl.org/dc/elements/1.1/"
   xmlns:cc="http://creativecommons.org/ns#"
   xmlns:rdf="http://www.w3.org/1999/02/22-rdf-syntax-ns#"
   xmlns:svg="http://www.w3.org/2000/svg"
   xmlns="http://www.w3.org/2000/svg"
   xmlns:xlink="http://www.w3.org/1999/xlink"
   xmlns:sodipodi="http://sodipodi.sourceforge.net/DTD/sodipodi-0.dtd"
   xmlns:inkscape="http://www.inkscape.org/namespaces/inkscape"
   width="300.0004"
   height="300.0004"
   id="svg3465"
   version="1.1"
   inkscape:version="0.48.4 r9939"
   sodipodi:docname="4.svg">
  <defs
     id="defs3467">
    <linearGradient
       inkscape:collect="always"
       xlink:href="#linearGradient6591"
       id="linearGradient9923"
       gradientUnits="userSpaceOnUse"
       x1="466.82819"
       y1="493.59671"
       x2="416.82819"
       y2="443.59671" />
    <linearGradient
       id="linearGradient6591">
      <stop
         style="stop-color:#5c7dfe;stop-opacity:1"
         offset="0"
         id="stop6593" />
      <stop
         id="stop6641"
         offset="0.33000001"
         style="stop-color:#5c7dfe;stop-opacity:1;" />
      <stop
         id="stop6639"
         offset="0.67000002"
         style="stop-color:#5cfe64;stop-opacity:1;" />
      <stop
         style="stop-color:#5cfe65;stop-opacity:1;"
         offset="1"
         id="stop6595" />
    </linearGradient>
    <linearGradient
       inkscape:collect="always"
       xlink:href="#linearGradient6591-1"
       id="linearGradient9927"
       gradientUnits="userSpaceOnUse"
       gradientTransform="translate(50,0)"
       x1="466.82819"
       y1="493.59671"
       x2="416.82819"
       y2="443.59671" />
    <linearGradient
       id="linearGradient6591-1">
      <stop
         style="stop-color:#5c7dfe;stop-opacity:1"
         offset="0"
         id="stop6593-7" />
      <stop
         id="stop6641-4"
         offset="0.33000001"
         style="stop-color:#5c7dfe;stop-opacity:1;" />
      <stop
         id="stop6639-0"
         offset="0.67000002"
         style="stop-color:#5cfe64;stop-opacity:1;" />
      <stop
         style="stop-color:#5cfe65;stop-opacity:1;"
         offset="1"
         id="stop6595-9" />
    </linearGradient>
    <linearGradient
       y2="443.59671"
       x2="416.82819"
       y1="493.59671"
       x1="466.82819"
       gradientTransform="translate(50,0)"
       gradientUnits="userSpaceOnUse"
       id="linearGradient3605"
       xlink:href="#linearGradient6591-1"
       inkscape:collect="always" />
  </defs>
  <sodipodi:namedview
     id="base"
     pagecolor="#ffffff"
     bordercolor="#666666"
     borderopacity="1.0"
     inkscape:pageopacity="0.0"
     inkscape:pageshadow="2"
     inkscape:zoom="0.35"
     inkscape:cx="53.571592"
     inkscape:cy="190.00018"
     inkscape:document-units="px"
     inkscape:current-layer="layer1"
     showgrid="false"
     fit-margin-top="0"
     fit-margin-left="0"
     fit-margin-right="0"
     fit-margin-bottom="0"
     inkscape:window-width="613"
     inkscape:window-height="401"
     inkscape:window-x="418"
     inkscape:window-y="62"
     inkscape:window-maximized="0" />
  <metadata
     id="metadata3470">
    <rdf:RDF>
      <cc:Work
         rdf:about="">
        <dc:format>image/svg+xml</dc:format>
        <dc:type
           rdf:resource="http://purl.org/dc/dcmitype/StillImage" />
        <dc:title></dc:title>
      </cc:Work>
    </rdf:RDF>
  </metadata>
  <g
     inkscape:label="Layer 1"
     inkscape:groupmode="layer"
     id="layer1"
     transform="translate(-321.42841,-422.36196)">
    <g
       id="g8945"
       transform="matrix(6.0000079,0,0,6.0000079,-2479.5445,-2239.2218)">
      <g
         transform="matrix(0.57996194,0,0,0.77818661,1214.6783,468.69726)"
         style="font-size:40px;font-style:normal;font-variant:normal;font-weight:normal;font-stretch:normal;line-height:125%;letter-spacing:0px;word-spacing:0px;fill:#cccccc;fill-opacity:1;stroke:none;font-family:Lucida Console;-inkscape-font-specification:Lucida Console"
         id="flowRoot5587">
        <path
           inkscape:connector-curvature="0"
           d="m -1253.7969,13.806341 0,-3.300781 c 2.2005,0.859378 3.9649,1.289065 5.293,1.289062 1.5885,3e-6 2.8939,-0.615231 3.916,-1.8457026 1.0221,-1.2304635 1.5332,-2.8027276 1.5332,-4.7167969 0,-4.3098828 -2.8255,-6.4648286 -8.4766,-6.4648438 -0.4817,1.52e-5 -1.0546,0.026057 -1.7187,0.078125 l 0,-13.7890627 13.5547,0 0,3.359375 -10.3125,0 0,7.5000002 c 3.4114,1.81e-5 6.1067,0.8593922 8.0859,2.578125 1.9792,1.71876379 2.9688,4.056001 2.9688,7.0117188 0,2.6302142 -0.8985,4.817712 -2.6953,6.5625 -1.7969,1.744792 -4.0495,2.617187 -6.7579,2.617187 -1.5234,0 -3.3203,-0.292969 -5.3906,-0.878906 z"
           style="text-align:center;text-anchor:middle;fill:#cccccc;font-family:Lucida Console;-inkscape-font-specification:Lucida Console"
           id="path13316" />
      </g>
      <path
         inkscape:connector-curvature="0"
         style="fill:url(#linearGradient3605);fill-opacity:1;stroke:none"
         d="m 491.8282,493.59671 c 13.80712,0 25,-11.19288 25,-25 0,-13.80712 -11.19288,-25 -25,-25 l -25,0 0,25 c 0,13.80712 11.19288,25 25,25 z m 0,-5 c -11.0457,0 -20,-8.9543 -20,-20 0,-10.70052 8.40135,-19.43309 18.96875,-19.96875 0.34088,-0.0173 0.68607,-0.0312 1.03125,-0.0312 11.0457,0 20,8.9543 20,20 0,11.0457 -8.9543,20 -20,20 z"
         id="path6611" />
    </g>
  </g>
</svg>
