<?xml version="1.0" encoding="UTF-8" standalone="no"?>
<!-- Created with Inkscape (http://www.inkscape.org/) -->

<svg
   xmlns:dc="http://purl.org/dc/elements/1.1/"
   xmlns:cc="http://creativecommons.org/ns#"
   xmlns:rdf="http://www.w3.org/1999/02/22-rdf-syntax-ns#"
   xmlns:svg="http://www.w3.org/2000/svg"
   xmlns="http://www.w3.org/2000/svg"
   xmlns:xlink="http://www.w3.org/1999/xlink"
   xmlns:sodipodi="http://sodipodi.sourceforge.net/DTD/sodipodi-0.dtd"
   xmlns:inkscape="http://www.inkscape.org/namespaces/inkscape"
   width="300.0004"
   height="300.0004"
   id="svg3451"
   version="1.1"
   inkscape:version="0.48.4 r9939">
  <defs
     id="defs3453">
    <linearGradient
       inkscape:collect="always"
       xlink:href="#linearGradient6591"
       id="linearGradient9929"
       gradientUnits="userSpaceOnUse"
       gradientTransform="translate(100,0)"
       x1="466.82819"
       y1="493.59671"
       x2="416.82819"
       y2="443.59671" />
    <linearGradient
       id="linearGradient6591">
      <stop
         style="stop-color:#5c7dfe;stop-opacity:1"
         offset="0"
         id="stop6593" />
      <stop
         id="stop6641"
         offset="0.33000001"
         style="stop-color:#5c7dfe;stop-opacity:1;" />
      <stop
         id="stop6639"
         offset="0.67000002"
         style="stop-color:#5cfe64;stop-opacity:1;" />
      <stop
         style="stop-color:#5cfe65;stop-opacity:1;"
         offset="1"
         id="stop6595" />
    </linearGradient>
    <linearGradient
       y2="443.59671"
       x2="416.82819"
       y1="493.59671"
       x1="466.82819"
       gradientTransform="translate(100,0)"
       gradientUnits="userSpaceOnUse"
       id="linearGradient3479"
       xlink:href="#linearGradient6591"
       inkscape:collect="always" />
    <linearGradient
       inkscape:collect="always"
       xlink:href="#linearGradient6619"
       id="linearGradient9925"
       gradientUnits="userSpaceOnUse"
       x1="566.82819"
       y1="493.59671"
       x2="616.82819"
       y2="443.59671" />
    <linearGradient
       id="linearGradient6619">
      <stop
         style="stop-color:#5c7dfe;stop-opacity:1;"
         offset="0"
         id="stop6621" />
      <stop
         id="stop6635"
         offset="0.33000001"
         style="stop-color:#5c7dfe;stop-opacity:1;" />
      <stop
         style="stop-color:#effe5c;stop-opacity:1;"
         offset="0.67000002"
         id="stop6637" />
      <stop
         style="stop-color:#effe5c;stop-opacity:1;"
         offset="1"
         id="stop6623" />
    </linearGradient>
    <linearGradient
       inkscape:collect="always"
       xlink:href="#linearGradient6619-1"
       id="linearGradient9931"
       gradientUnits="userSpaceOnUse"
       gradientTransform="translate(50,0)"
       x1="566.82819"
       y1="493.59671"
       x2="616.82819"
       y2="443.59671" />
    <linearGradient
       id="linearGradient6619-1">
      <stop
         style="stop-color:#5c7dfe;stop-opacity:1;"
         offset="0"
         id="stop6621-7" />
      <stop
         id="stop6635-4"
         offset="0.33000001"
         style="stop-color:#5c7dfe;stop-opacity:1;" />
      <stop
         style="stop-color:#effe5c;stop-opacity:1;"
         offset="0.67000002"
         id="stop6637-0" />
      <stop
         style="stop-color:#effe5c;stop-opacity:1;"
         offset="1"
         id="stop6623-9" />
    </linearGradient>
    <linearGradient
       y2="443.59671"
       x2="616.82819"
       y1="493.59671"
       x1="566.82819"
       gradientTransform="translate(50,0)"
       gradientUnits="userSpaceOnUse"
       id="linearGradient3573"
       xlink:href="#linearGradient6619-1"
       inkscape:collect="always" />
  </defs>
  <sodipodi:namedview
     id="base"
     pagecolor="#ffffff"
     bordercolor="#666666"
     borderopacity="1.0"
     inkscape:pageopacity="0.0"
     inkscape:pageshadow="2"
     inkscape:zoom="0.35"
     inkscape:cx="73.676679"
     inkscape:cy="127.14308"
     inkscape:document-units="px"
     inkscape:current-layer="layer1"
     showgrid="false"
     fit-margin-top="0"
     fit-margin-left="0"
     fit-margin-right="0"
     fit-margin-bottom="0"
     inkscape:window-width="825"
     inkscape:window-height="401"
     inkscape:window-x="469"
     inkscape:window-y="88"
     inkscape:window-maximized="0" />
  <metadata
     id="metadata3456">
    <rdf:RDF>
      <cc:Work
         rdf:about="">
        <dc:format>image/svg+xml</dc:format>
        <dc:type
           rdf:resource="http://purl.org/dc/dcmitype/StillImage" />
        <dc:title></dc:title>
      </cc:Work>
    </rdf:RDF>
  </metadata>
  <g
     inkscape:label="Layer 1"
     inkscape:groupmode="layer"
     id="layer1"
     transform="translate(-104.28548,-359.50486)">
    <g
       id="g8916"
       transform="matrix(6.0000079,0,0,6.0000079,-3596.6886,-2302.0789)">
      <g
         transform="matrix(0.57996194,0,0,0.77818661,1364.8934,468.97844)"
         style="font-size:40px;font-style:normal;font-variant:normal;font-weight:normal;font-stretch:normal;line-height:125%;letter-spacing:0px;word-spacing:0px;fill:#cccccc;fill-opacity:1;stroke:none;font-family:Lucida Console;-inkscape-font-specification:Lucida Console"
         id="flowRoot5623">
        <path
           inkscape:connector-curvature="0"
           d="m -1250.5352,-1.7795963 c -2.6302,-1.9270656 -3.9453,-4.1406051 -3.9453,-6.640625 0,-2.2004967 0.752,-3.9583067 2.2559,-5.2734377 1.5039,-1.315075 3.5124,-1.972626 6.0254,-1.972656 2.3698,3e-5 4.2089,0.543649 5.5176,1.630859 1.3085,1.087267 1.9628,2.620468 1.9628,4.5996097 0,2.9427288 -1.6862,5.4362159 -5.0585,7.4804688 2.3307,1.4062645 3.9518,2.71811215 4.8632,3.9355469 0.9115,1.2174586 1.3672,2.6725353 1.3672,4.3652343 0,2.4218802 -0.8854,4.4173213 -2.6562,5.9863283 -1.7709,1.56901 -4.0235,2.353515 -6.7578,2.353515 -2.6693,0 -4.834,-0.738932 -6.4942,-2.216796 -1.6601,-1.477862 -2.4902,-3.4016882 -2.4902,-5.7714848 0,-3.4635309 1.8034,-6.2890489 5.4101,-8.4765625 z m 2.0508,1.56250004 c -2.4479,2.00522046 -3.6719,4.14063506 -3.6719,6.40624996 0,1.6666728 0.5111,3.0175829 1.5333,4.0527343 1.0221,1.035159 2.36,1.552737 4.0136,1.552734 1.4714,3e-6 2.7051,-0.442705 3.7012,-1.328125 0.9961,-0.8854118 1.4941,-1.9856711 1.4941,-3.3007808 0,-2.1223869 -1.4974,-4.0755099 -4.4922,-5.859375 z m 2.5391,-3.04687504 c 2.513,-1.5885228 3.7695,-3.4374793 3.7695,-5.546875 0,-1.1978927 -0.4004,-2.1581777 -1.2012,-2.8808597 -0.8007,-0.72263 -1.8587,-1.083957 -3.1738,-1.083984 -1.3151,2.7e-5 -2.3665,0.345078 -3.1543,1.035156 -0.7877,0.690129 -1.1816,1.614608 -1.1816,2.7734377 0,1.8229378 1.2955,3.5156445 3.8867,5.078125 z"
           style="text-align:center;text-anchor:middle;fill:#cccccc;font-family:Lucida Console;-inkscape-font-specification:Lucida Console"
           id="path13310" />
      </g>
      <path
         id="path6643"
         d="m 616.8282,468.59671 c 0,13.80712 11.19288,25 25,25 13.80712,0 25,-11.19288 25,-25 l 0,-25 -25,0 c -13.80712,0 -25,11.19288 -25,25 z m 5,0 c 0,-11.0457 8.9543,-20 20,-20 10.70052,0 19.43309,8.40135 19.96875,18.96875 0.0173,0.34088 0.0312,0.68607 0.0312,1.03125 0,11.0457 -8.9543,20 -20,20 -11.0457,0 -20,-8.9543 -20,-20 z"
         style="fill:url(#linearGradient3573);fill-opacity:1;stroke:none"
         inkscape:connector-curvature="0" />
    </g>
  </g>
</svg>
