<?xml version="1.0" encoding="UTF-8" standalone="no"?>
<!-- Created with Inkscape (http://www.inkscape.org/) -->

<svg
   xmlns:dc="http://purl.org/dc/elements/1.1/"
   xmlns:cc="http://creativecommons.org/ns#"
   xmlns:rdf="http://www.w3.org/1999/02/22-rdf-syntax-ns#"
   xmlns:svg="http://www.w3.org/2000/svg"
   xmlns="http://www.w3.org/2000/svg"
   xmlns:sodipodi="http://sodipodi.sourceforge.net/DTD/sodipodi-0.dtd"
   xmlns:inkscape="http://www.inkscape.org/namespaces/inkscape"
   width="21.996534"
   height="21.996534"
   id="svg5516"
   version="1.1"
   inkscape:version="0.48.5 r10040"
   sodipodi:docname="agreed.svg">
  <defs
     id="defs5518" />
  <sodipodi:namedview
     id="base"
     pagecolor="#ffffff"
     bordercolor="#666666"
     borderopacity="1.0"
     inkscape:pageopacity="0.0"
     inkscape:pageshadow="2"
     inkscape:zoom="31.678384"
     inkscape:cx="8.108407"
     inkscape:cy="9.7256861"
     inkscape:document-units="px"
     inkscape:current-layer="layer1"
     showgrid="false"
     fit-margin-top="0"
     fit-margin-left="0"
     fit-margin-right="0"
     fit-margin-bottom="0"
     inkscape:window-width="1366"
     inkscape:window-height="706"
     inkscape:window-x="-8"
     inkscape:window-y="-8"
     inkscape:window-maximized="1" />
  <metadata
     id="metadata5521">
    <rdf:RDF>
      <cc:Work
         rdf:about="">
        <dc:format>image/svg+xml</dc:format>
        <dc:type
           rdf:resource="http://purl.org/dc/dcmitype/StillImage" />
        <dc:title></dc:title>
      </cc:Work>
    </rdf:RDF>
  </metadata>
  <g
     inkscape:label="Layer 1"
     inkscape:groupmode="layer"
     id="layer1"
     transform="translate(-353.2887,-564.22144)">
    <g
       style="display:inline"
       id="g5491"
       transform="translate(1793.1012,-1212.2188)">
      <path
         transform="matrix(0.2775588,0,0,0.2775588,-817.8466,1262.1845)"
         d="m -2163.3932,1892.405 c 0,20.8931 -16.9371,37.8302 -37.8302,37.8302 -20.893,0 -37.8302,-16.9371 -37.8302,-37.8302 0,-20.893 16.9372,-37.8302 37.8302,-37.8302 20.8931,0 37.8302,16.9372 37.8302,37.8302 z"
         sodipodi:ry="37.830212"
         sodipodi:rx="37.830212"
         sodipodi:cy="1892.405"
         sodipodi:cx="-2201.2234"
         id="path5298"
         style="fill:#000000;fill-opacity:1;stroke:none"
         sodipodi:type="arc" />
      <path
         sodipodi:nodetypes="ssscscs"
         inkscape:connector-curvature="0"
         d="m -1423.5654,1792.6881 c -2.8995,0 -5.25,-2.3505 -5.2501,-5.25 -10e-5,-2.8995 -2.3506,-5.25 -5.2501,-5.25 -2.8995,0 -5.25,2.3505 -5.25,5.2501 0,-5.7991 4.701,-10.5001 10.5001,-10.5001 5.799,0 10.5001,4.701 10.5001,10.5001 0,2.8994 -2.3505,5.2499 -5.25,5.2499 z"
         style="fill:#ffffff;fill-opacity:0.37647059;stroke:none"
         id="path5343" />
      <path
         sodipodi:type="arc"
         style="fill:none;stroke:#ffffff;stroke-width:3.60284019000000020;stroke-linecap:butt;stroke-linejoin:round;stroke-miterlimit:4;stroke-opacity:1;stroke-dasharray:none"
         id="path5349"
         sodipodi:cx="-2201.2234"
         sodipodi:cy="1892.405"
         sodipodi:rx="37.830212"
         sodipodi:ry="37.830212"
         d="m -2163.3932,1892.405 c 0,20.8931 -16.9371,37.8302 -37.8302,37.8302 -20.893,0 -37.8302,-16.9371 -37.8302,-37.8302 0,-20.893 16.9372,-37.8302 37.8302,-37.8302 20.8931,0 37.8302,16.9372 37.8302,37.8302 z"
         transform="matrix(0.2775588,0,0,0.2775588,-817.8466,1262.1845)" />
      <g
         transform="translate(34.434218,0.88742805)"
         id="g5487">
        <path
           transform="matrix(0.28620989,0,0,0.28620989,-833.69539,1245.1281)"
           d="m -2210.4157,1891.6979 c 0,4.1005 -3.3241,7.4246 -7.4246,7.4246 -4.1005,0 -7.4247,-3.3241 -7.4247,-7.4246 0,-4.1005 3.3242,-7.4246 7.4247,-7.4246 4.1005,0 7.4246,3.3241 7.4246,7.4246 z"
           sodipodi:ry="7.4246211"
           sodipodi:rx="7.4246211"
           sodipodi:cy="1891.6979"
           sodipodi:cx="-2217.8403"
           id="path5418-9"
           style="fill:#ffffff;fill-opacity:1;stroke:none;display:inline"
           sodipodi:type="arc" />
        <path
           sodipodi:type="arc"
           style="fill:#ffffff;fill-opacity:1;stroke:none;display:inline"
           id="path5420-4"
           sodipodi:cx="-2217.8403"
           sodipodi:cy="1891.6979"
           sodipodi:rx="7.4246211"
           sodipodi:ry="7.4246211"
           d="m -2210.4157,1891.6979 c 0,4.1005 -3.3241,7.4246 -7.4246,7.4246 -4.1005,0 -7.4247,-3.3241 -7.4247,-7.4246 0,-4.1005 3.3242,-7.4246 7.4247,-7.4246 4.1005,0 7.4246,3.3241 7.4246,7.4246 z"
           transform="matrix(0.28613887,0,0,0.28613887,-823.4254,1245.2624)" />
      </g>
    </g>
  </g>
</svg>
